<?xml version="1.0" encoding="UTF-8"?>
<svg id="_レイヤー_2" data-name="レイヤー 2" xmlns="http://www.w3.org/2000/svg" viewBox="0 0 78.09 55.69">
  <defs>
    <style>
      .cls-1 {
        fill: #231815;
      }
    </style>
  </defs>
  <g id="_レイヤー_1-2" data-name="レイヤー 1">
    <g>
      <path class="cls-1" d="M23.3,18.19l-.51-.78c-.97,1.03-2.03,1.51-3.23,1.47-.2-.29-.31-.74-.31-1.24l.04-.34c.31.27.64.36,1,.25l.73-.48.18-.61c-.8.06-1.39-.34-1.81-1.18l-.33-.8.46.42,2.54.15c.22-.21.31-.48.26-.8-.31-.51-.71-.73-1.24-.63-.49.21-.97.29-1.53.25-.4-.17-.8-.48-1.17-.92-.29-.63-.55-1.35-.77-2.08l-.2-.06-.11.63.07.29c-.13.8-.24,1.62-.35,2.42-.11.8-.31,1.58-.57,2.31-.53.4-.95.9-1.28,1.47l-.49.25c-.51.46-1.06.65-1.68.55l-.8-.46-.07-.34-.51-.17-.2-.78-.57-.36-.07-.25.18-.06.27-.4c.22-.59.38-1.18.46-1.79l.24-.08v-.78l-.07-.51c.31-.34.44-.8.42-1.32-.2-.63-.38-1.26-.55-1.91-.2-.65-.44-1.28-.71-1.85l-.24-.55c-.29-.88-.51-1.81-.66-2.75l.13-.32-.09-.4.2-.57.42-.29.18-.46.27-.25c.95-.57,1.9-1.09,2.83-1.58.93-.46,1.97-.61,3.12-.46.75.06,1.48.15,2.19.23.73.1,1.35.44,1.9.95l.62,1.01c-.24,1.05-.57,2.06-1.02,3.03-.46.97-.75,2-.88,3.11l-.33.17-.27.61-.27.17,1.04.34.2-.08,2.74.15-.86-.92c-.29-.55-.55-1.11-.77-1.72l.13-.25.35-.17.18-.95-.07-.23c-.02-.82,0-1.64.07-2.44l-.07-.23c.42-.76.93-1.26,1.57-1.58.51-.13,1.08-.23,1.66-.25.58-.02,1.19-.04,1.79-.04.75.15,1.5.29,2.28.48.75.19,1.39.63,1.97,1.39l.27.8c0,.57-.2,1.05-.57,1.47l-.29.25c-.46,1.03-.93,2.1-1.35,3.19-.46,1.11-.75,2.29-.86,3.57.09.88.4,1.62.91,2.25l.6.31.2-.52.44.29c.04.38.13.72.27,1.03-.18.27-.4.38-.64.32l-.86-.48c-.42-.63-.73-1.3-.91-2.06-.18-.76-.24-1.6-.18-2.5l.18-1.41c-.68.67-1.46.95-2.34.8l-.26-.11c.35.38.57.76.66,1.18l-1.26,1.43-.24.08.46.69c-.73.65-1.52.86-2.43.74l.46.46.2-.1c.42.21.84.48,1.24.8l.11.48c-.64.4-1.3.78-2.01,1.09l-.07.29c.73.61,1.5.97,2.34,1.03l.2-.11,1.04.8.07.31c-.15.17-.27.36-.31.61l-.46.19c-1.02-.23-1.88-.82-2.61-1.81M19.56,2.49c-.18-.17-.35-.21-.55-.15-.55.31-1.08.5-1.64.65-.57.15-1.06.48-1.5.99l-.26.4v.38c.99.19,2.01.21,3.05.08l.4.08c.26-.78.44-1.6.51-2.44M19.06,6.65c-.93.02-1.86-.04-2.79-.15v.32l.77,1.01h1.81l.4-.25-.2-.93ZM23.88,12.24l.69-2.12-.69-.17-.38.63c-.35.57-.57,1.18-.64,1.83l.44.13.33-.13.24-.17ZM30.16,2.81c-.53-.21-1.08-.31-1.68-.31h-1.72l-1.17.55-.04.42.58.93.33.08.18.72c1.02-.06,1.95.15,2.81.61.4-.95.64-1.96.73-2.99M29.05,6.97c-.71-.27-1.46-.46-2.23-.57-.24.55-.4,1.11-.44,1.72.58.11,1.15.19,1.68.25l.4.57.2-.15.4-1.83Z"/>
      <path class="cls-1" d="M39.78,17.58l-.8-2.13c.53-.26,1.17-.48,1.86-.55l1.33.39.53-.26c.64-.74,1.14-1.55,1.55-2.4.42-.82.58-1.74.5-2.79l-.55-.58c-1.25-.11-2.47-.26-3.63-.45-.44.87-1.05,1.71-1.8,2.5l-.47.45c-.8.61-1.75.97-2.8,1.05l-.66-.58-1.22-.55c-1.11-1.11-1.69-2.4-1.75-3.9l.17-.63c1-.08,1.88-.45,2.6-1.11.72-.74,1.08-1.61,1.14-2.61-.06-.53-.25-1.05-.56-1.48,1.52.69,2.99,1.42,4.32,2.24l.55.82.75.74.28,1.29.83.21,5.65-.39c.72.08,1.39.32,1.94.76l.3.34.28.1.11.66-.77.26-2.27-.11-1.97.37c.53.39,1.02.68,1.52.92.25.71.33,1.48.3,2.34-.53,1.24-1.3,2.34-2.36,3.29-.8.79-1.58,1.61-2.36,2.4l-.56.11c-.75-.08-1.44-.32-1.99-.74"/>
      <path class="cls-1" d="M61.37,19.3c-.73-.65-1.02-1.39-.91-2.25l.35-2.06h-.29l-1.37.29-.31-.04-.22.04-.31-.11c-.16-.21-.42-.31-.82-.25v.44c.75.69,1.39,1.47,1.97,2.29v.23c-.38.21-.57.48-.62.82l-.44-.06-.4.1-.31-.04c-.51.25-1.11.36-1.81.32l-.86-.19-.6-2.02c.27-.17.38-.38.31-.65.51-.13,1.02-.32,1.46-.63l.2-.17.42.06.35-.15-2.14-1.68c-.22-.61-.6-1.22-1.04-1.83l-.31-.06c-.26.8-.51,1.6-.75,2.37-.24.78-.49,1.55-.69,2.33l.07.44c-.13.25-.2.53-.16.8l.09.55-.69.31c-.35-.55-.57-1.11-.69-1.74.71-1.01,1.24-2.1,1.59-3.24.35-1.11.69-2.25.97-3.38.38-1.05.73-2.06,1.15-3l.09.63-.46,2.12h.31c.66-.27,1.35-.52,2.06-.76.71-.19,1.44-.36,2.21-.5l.07-1.14-.07-.17c.2-.17.27-.4.2-.69-.91-.42-1.77-.88-2.59-1.37-.75-.65-1.37-1.3-1.88-2.02l-1.08-1.05h.31l.11-.4-.42-.73.24-.44-.24-.42c.64.44,1.26.71,1.92.82.64.08,1.35.15,2.06.15l2.5-.19.24.08c.75-.17,1.55-.23,2.41-.19l1.08.23.22-.23c.66.17,1.15.44,1.46.88l.31.11.07.44.31.46.93.42.44,1.14c-.11.29-.26.59-.44.88l-1.39,1.05c-.93.63-1.99.93-3.18.88l-.62.76.53.08,2.12-.21,1.55.69c.22.21.35.46.35.74l-.15.95.09.19c-.35.72-.62,1.45-.8,2.21-.2.8-.42,1.53-.73,2.25-.71.32-1.5.46-2.43.44-.51.51-.77,1.07-.77,1.75l.46.59.46.44.13.86-.88.55-.31-.13ZM63.4,13.67c.31,0,.57-.13.77-.36.13-.61.24-1.22.31-1.87.04-.65.07-1.3.07-1.96l-.44-.06c-.91.38-1.81.69-2.74.99l-.09.25.09.17-1.15.46-.07.21c.71.1,1.46.13,2.28.1l.55-.06,1.13.99v.25l-.46.19-.46.44-1.22.13c-.71-.13-1.39-.34-2.06-.69l-.69-.92-.38-.08-.75.44-.18.57.4.19.31.42.29.21c.71.4,1.53.57,2.45.51l.2-.04.4.04.24-.04.29.04.38-.11h.18l.35-.4ZM63.18,15.94c.77.55,1.66.78,2.68.63l.77-.15.35.06.31-.06.4.27.22.36.31.13.07.27.24.31c-.33.17-.46.4-.4.69-.55.42-1.22.61-1.99.57-1.68-.55-2.67-1.6-2.96-3.09"/>
      <path class="cls-1" d="M4,33.53c-.59-.1-1.18-.33-1.71-.73-.31-.39-.67-.75-1.1-.98l-.3-1.28.08-.2-.45-1.41.12-.69c-.2-.33-.39-.65-.65-.94v-.31l.79-.82c.39-.29.69-.67.84-1.08v-.3c.57-.47,1.16-.82,1.8-1.04.63-.24,1.29-.35,2.02-.35.9.1,1.67.55,2.3,1.39.26.53.37,1.12.37,1.75l-.18.65.04,1.06c0,.61-.08,1.22-.24,1.81-.16.59-.23,1.16-.23,1.77l.06.43-.29.98c-.41.47-.92.71-1.51.71-.57-.2-1.18-.33-1.77-.41M6.81,30.21c-.1-.75-.14-1.51-.14-2.3s-.08-1.49-.26-2.2l-.23-.06c-.65.53-1.2,1.14-1.65,1.88v.33c.26.63.47,1.24.67,1.85.16.61.27,1.28.31,1.98-.22.18-.27.39-.2.69l1.1-.28c.26-.57.39-1.2.39-1.9M10.56,37.12l-.31.08-.67-.73-.18-.29c-.12-.43-.22-.86-.3-1.26h.3c0-.49.16-.88.49-1.22.69-.12,1.33-.33,1.92-.63-.69-.35-1.37-.75-2.04-1.1l-.14-.35-.3-.22-.55-.41v-.84l.43-.51c-.04-.57-.04-1.16,0-1.77-.2-.8-.49-1.63-.84-2.45l.1-.41-.1-1.41.3-.67c.63-.75,1.35-1.28,2.14-1.63.77-.35,1.61-.45,2.53-.3.73.1,1.43.26,2.12.45.69.22,1.29.65,1.84,1.31l.28.31v.31c-.39,1.18-.82,2.3-1.28,3.39-.47,1.08-.65,2.36-.51,3.75.06.84.2,1.67.41,2.47l-.31.06c-.16-.31-.37-.45-.67-.41l-.41.49c-.69.3-1.43.39-2.2.3l-.47-.14v.27l1.63,1.39c-.14.67-.37,1.2-.73,1.61-.49.55-1.12.79-1.85.67l-.65-.14ZM15.84,22.77l-.55-.24c-.73.12-1.41.37-2.04.73-.45.37-.8.84-1.1,1.39v.35l.24.47.53.1.33-.1c.73,0,1.39.12,1.98.37.26-1.04.45-2.06.61-3.08M15.03,29.99l-.04-.2-1.59.28-.49,1.63,1.71-.29.41.06v-1.47ZM15.03,27.11l.06-.18c-.55-.2-1.16-.27-1.85-.24-.18.06-.23.2-.19.41.25.43.37.86.41,1.33.59.06,1.1.26,1.57.63v-1.96ZM15.84,36.31c-.53-.55-.92-1.2-1.22-1.94.39.35.84.49,1.31.39l.86-.12c.84,0,1.55.37,2.14,1.12l.18.82-.1.33c-.29.27-.67.37-1.12.27-.77-.06-1.45-.33-2.06-.88"/>
      <path class="cls-1" d="M23.22,37.2l-.1-.41.24-.22c-1.47-.96-2.55-2.28-3.22-3.96l.2-.49-.06-.45c.08-.67.24-1.33.45-1.98.19-.63.43-1.26.69-1.89-.65-.86-1.04-1.8-1.22-2.85.55.63,1.14,1.26,1.77,1.83l.51-1.3.51-1.14.24-.08c.79.45,1.49,1.02,2.16,1.65l.26.37.43.22,1.08,1.49-.51.55c-.08.79-.24,1.49-.49,2.16.45.2.94.33,1.45.41l.55-.47.06-.21,1.16.82.06.28-.2.45c-1.2,1.1-2.3,2.28-3.28,3.53l.39.06.3-.18.19-.41c.55.39,1.04.79,1.45,1.14l.06.39-.29.37c-.65.16-1.33.25-2.04.25-.41-.18-.88-.25-1.37-.25-.29.23-.63.45-1.02.59l-.39-.28ZM25.75,33.6l.26-.26.25-.08.37-.73.39-.49-1.45-.47c-.75.45-1.55.88-2.36,1.28-.27.27-.43.63-.43,1.04.29.53.71.94,1.26,1.22l.65.08,1.06-1.59ZM35.9,37.37c-.53-.12-1.08-.18-1.61-.18-.67,0-1.28.2-1.79.59-.45-.49-.84-1.02-1.14-1.61.9-.02,1.82-.04,2.73-.06-.33-.59-.53-1.16-.57-1.75l-.25-.08c-.45.28-.98.39-1.57.35l-1.08-.35c-.16-.49-.28-1-.31-1.55h.26l-.39-.33c-.18.71-.24,1.49-.18,2.36,0,.47.12.8.37,1.02l.2-.49c.2.57.39,1.08.57,1.59l-.14.31-.43.12-.88-1.14-.2-.79.08-.2-.08-1.1.08-.35-.08-.26c.22-.71.31-1.49.31-2.31-.08-.59-.2-1.16-.37-1.75h.43l.19.08c.26-.65.51-1.28.71-1.9.22-.63.43-1.28.67-1.9-.67-.67-1.33-1.35-2-2.02l.06-.22-.19-.08c-.22-.53-.37-1.1-.55-1.69l.24-.08,1.39.43c.77-.18,1.51-.41,2.22-.71.71-.25,1.49-.39,2.32-.39.84.14,1.59.57,2.22,1.28l.12.35c.35.18.63.43.82.8v.55l-.14.61.08.2-.37.8c-.84.57-1.75.96-2.73,1.24-.18.22-.26.47-.26.8l.53.16c1.02-.04,1.81.27,2.39.96.33.84.47,1.79.43,2.83l-.08.27c.1.69.16,1.39.14,2.1l-.94.2c-.23-.14-.55-.2-.86-.2-.39.22-.82.33-1.35.33l-.26,1.88h1.08l.2-.06c.88.16,1.69.57,2.39,1.2l.08.22-.28.31c-.24.14-.51.28-.8.37-.41-.43-.9-.69-1.41-.79M33.95,33.15l.45.06c.8-.1,1.53-.37,2.2-.8l.08-.29c-.06-.94-.18-1.83-.39-2.69-.75.39-1.47.79-2.14,1.14-.45.51-.96.96-1.51,1.37-.59.25-1.18.49-1.77.67l-.08.2.53.06.23-.06c.57.51,1.24.69,2.02.55l.2-.14.18-.06ZM33.38,28.05l.28-1.39c-.57-.14-1.06-.35-1.51-.63-.57.9-.9,1.88-1.08,2.98l.3-.06,2.02-.9Z"/>
      <path class="cls-1" d="M41.92,31.8c-.37-.33-.75-.65-1.08-.94-.04-.43-.2-.8-.45-1.14l-.3-.24c.04-.43-.1-.79-.39-1.02l-.24-.12.3-.2.82.39c1.31-.86,2.45-1.9,3.47-3.1.71-.8,1.45-1.63,2.22-2.47.75-.86,1.59-1.55,2.51-2.06l1.33-.37c.92.08,1.75.49,2.47,1.2.94,1.26,1.63,2.65,2,4.16.39,1.51,1.12,2.85,2.2,4.02l.45.06-.2.14-.06.2.33.84-.39.59-.82-.51c-.98-1.26-1.77-2.59-2.36-4-.61-1.39-1.28-2.79-1.98-4.18l-.39-.1c-.59.57-.98,1.24-1.18,1.98-.18.77-.37,1.49-.59,2.2l.06.2-.06.2c.63,0,1.24.02,1.83.06.59.06,1.12.28,1.59.63l.69.63.06.19.51.39v.43l-.37,1.2-.25.18c.04.33-.1.55-.37.65-.43.16-.9.22-1.47.16-.63-.06-1.18-.3-1.67-.69-.53-.35-1.02-.77-1.55-1.18-.31.35-.61.78-.82,1.26l-.92.37-.2-.06c-.79.63-1.69.98-2.71,1.06l-.2-.04-.63.16-1.2-1.12ZM45.91,38.22c-.39-.33-.71-.73-.96-1.2-.26-.55-.35-1.14-.26-1.81l.82-1.33.2-.08.25.08.82-.88.24-.08.45-.55.94-.14c.33.21.63.53.88.88.59-.33,1.14-.53,1.69-.63.65.18,1.26.39,1.84.67.61.27,1.18.51,1.77.73.55.88,1.02,1.79,1.37,2.71l-.63,1.08-.35.04c-.22-.28-.53-.41-.88-.37-.53.55-1.16.77-1.9.63l-1.9-.19c-.49.25-1.02.45-1.63.59-.59.12-1.2.16-1.82.12l-.94-.26ZM53.46,36.33c-.12-.59-.39-1.1-.82-1.57l-.63-.28c-.59.14-1.16.28-1.77.45l-.31.69c-.88.39-1.77.77-2.65,1.16l.45.24,2.28-.18,1.77.18.18-.08.2.08,1.2-.24.12-.45Z"/>
      <path class="cls-1" d="M68.99,37.94c.49-.31.98-.63,1.49-.88l.22-.35.18-.06c.57-.55,1.16-1.12,1.71-1.71l.06-.59c-.28-.49-.49-.98-.71-1.55-.63.04-1.2-.1-1.65-.43-.47-.33-.98-.57-1.51-.73-.22-.33-.33-.71-.33-1.16l-.33-.57-.06.35-.18.1c-.12.61-.31,1.16-.57,1.65l-.35-.33c-.47.3-.92.47-1.35.61l-.1.88.37.1.3-.3c-.04-.19.02-.29.18-.29l.69.79.16.51-.39.55-1.14.67-.06.39.57,1.22.18.08.12-.18.2.45c.3.1.41.27.37.55l-.37.1-.49-.35c-.51-.67-.88-1.39-1.08-2.22l-2.33-.35-.24.06c-.43-.51-.69-1.14-.73-1.84l.06-.18.47.49,1.63.06.96-.14-.04-1-.35-.04-.27.04-.3-.12-.27.18c0,.25-.1.45-.28.65l-.16.06-1.61-.77-.28-.31c-.31-.59-.55-1.2-.77-1.84-.22-.65-.47-1.28-.77-1.86-.04-.29.06-.47.26-.57l.84-.73c.06-.3.14-.55.26-.77-.49-.61-.9-1.22-1.2-1.86-.31-.65-.55-1.33-.73-2.04l.02-.23-.02-.55.51-.16c.1-.31.33-.45.73-.35l.33.18.06-.31-.39-.47,1.18.61.41.35c.77.39,1.49.92,2.16,1.59.06.27.23.43.51.47-.02-.55-.04-1.12-.06-1.67.59.43,1.06.94,1.41,1.49l.31.06c.1.37.24.67.43.94l.18.06c.28-.63.41-1.29.45-2l-.06-.18c.75.35,1.37.84,1.81,1.53v.28l-.18.31c-.45.51-.98.79-1.63.84l-.33-.31-.2.31c.61.2,1.18.49,1.67.94.18.18.28.41.28.71l-.06.18.06.22c-.26.65-.41,1.35-.47,2.1.31.08.61.18.86.28.55-.18,1.04-.45,1.47-.82l.06-.65c-.06-.51-.12-1.02-.16-1.55l.73.71-.24-.06v.9l.2.55h.22v-.31l.1.24.3.08.1-.23-.06-.2.06-.18h.29l.24.06.12-.24.96.47,1.12,1.29c.16,0,.24.1.24.31l-.1.51-.47,1.02-.3.12c-.28.41-.65.71-1.06.96l-.33.06v.22l.61,1.37.24.06.12-.26.31-.1.12-.3.18-.06.24-.43,1.02-.94.41.24.08.53c-.33.41-.67.75-1.06,1.04-.37.3-.77.57-1.12.86l-.06.31.61.88c.35-.57.55-1.14.61-1.73.39.67.71,1.31.98,1.98.28.69.45,1.39.57,2.14-.12.2-.27.26-.53.18-.63-.28-1.22-.75-1.75-1.37l-1.24-1.71c-.77.59-1.55,1.14-2.38,1.59-.35.24-.67.49-.92.77l-.63.84-.12-.77ZM67.47,26.72l-.35-.14c-.53.18-1.02.43-1.49.73-.49.33-.96.61-1.45.88l-.08.25c.57-.14,1.1-.22,1.61-.25l.22-.69.18-.08.45.31.1.28-.04.29.57.31c.2-.61.3-1.24.3-1.9M65.08,29.78l-.57-.04c-.14.2-.2.43-.18.69l.24.14.45-.2.06-.59ZM64.94,24.24v.35l.08.39-.12.3.47.08.33-.08c-.29-.45-.55-.79-.77-1.04M67.02,30.27l.1-1h-.41l-.71.33-.19.73c.35-.08.69-.04.98.1l.24-.16ZM74.11,27.15c-.41-.37-.86-.73-1.31-1.02-.1-.33-.16-.65-.16-.94l.06-.37-.18-.12c-.2-.35-.31-.73-.39-1.1l.26-.65-.22-.84.22.23.31-.18.06-.29.37-.24.12-.41.59.12.73.29.29-.14c-.06.25-.02.47.1.67l.16-.06c.84.39,1.63.84,2.34,1.35l.57.71.08.88c-.12.63-.37,1.24-.77,1.81-.47.53-1.06.84-1.77.94-.55-.04-1.04-.26-1.45-.65"/>
    </g>
    <g>
      <path class="cls-1" d="M25.02,48.18c.49.73.82,1.27,1.22,2.02-.07-.78-.1-1.56-.1-2.52v-3.88c0-1.12-.03-1.8-.14-2.58h3.62c-.1.76-.14,1.48-.14,2.58v9.03c0,1.04.05,1.82.14,2.53h-3.72c-.31-.65-.7-1.28-1.28-2.16l-3.14-4.74c-.46-.68-.75-1.19-1.22-2.09.08.76.12,1.7.12,2.53v3.81c0,1.17.03,1.92.14,2.65h-3.62c.1-.66.14-1.41.14-2.67v-8.94c0-.99-.03-1.75-.14-2.53h3.69c.17.46.54,1.14,1.21,2.12l3.23,4.83Z"/>
      <path class="cls-1" d="M45.04,48.23c0,4.49-2.74,7.46-6.87,7.46s-6.85-2.91-6.85-7.41,2.69-7.36,6.87-7.36,6.85,2.86,6.85,7.31ZM41.51,48.27c0-2.75-1.26-4.42-3.31-4.42s-3.35,1.68-3.35,4.42,1.28,4.49,3.35,4.49,3.31-1.7,3.31-4.49Z"/>
      <path class="cls-1" d="M57.25,55.37c-.07-.54-.19-1.14-.36-1.82l-1.29-5c-.17-.66-.31-1.45-.48-2.57-.1.7-.31,1.77-.51,2.57l-1.26,5.01c-.22.85-.32,1.34-.37,1.8h-3.38c-.08-.49-.17-.85-.42-1.84l-2.72-10.2c-.24-.87-.48-1.65-.65-2.11h3.88c.02.61.1,1.16.24,1.87l1.09,5.17c.05.25.17,1.05.37,2.4.25-1.43.37-2.04.48-2.4l1.36-5.27c.2-.76.31-1.29.37-1.77h3.03c.07.44.17.92.39,1.72l1.38,5.24c.14.54.26,1.1.48,2.48q.03-.32.14-1.04c.05-.37.17-1.19.24-1.46l1.07-5.07c.17-.78.24-1.27.25-1.87h3.86c-.17.46-.41,1.26-.63,2.11l-2.72,10.18c-.22.8-.37,1.45-.43,1.85h-3.4Z"/>
    </g>
  </g>
</svg>